# xmcd
#
# Track frame offsets:
#	150
#	15045
#	30420
#	42795
#	55325
#	68523
#	81738
#	94450
#	107322
#	120720
#	134070
#	145800
#	158739
#	173064
#	185786
#	198281
#	211856
#	225431
#	240956
#	252750
#
# Disc length: 3545 seconds
# Revision: 2
# Processed by: cddbd v1.5.2PL0 Copyright (c) Steve Scherf et al.
# Submitted via: dBpowerAMP V12.0
#
DISCID=020dd714
DTITLE=Various Artist - Those Dirty Blues Volume 2
DYEAR=2009
DGENRE=Blues
TTITLE0=Margaret Webster With Clarence Williams' Washboard Band - I've Got What It Takes (But It Breaks My Heart To Give It Away)
TTITLE1=Hattie North - Honey Dripper Blues
TTITLE2=Blind Boy Fuller - I Want Some Of Your Pie
TTITLE3=Bea Foote - Try And Get It
TTITLE4=The Memphis Jug Band - She Done Sold It Out
TTITLE5=Connie McLean's Rhythm Boys - I Can't Use That Thing
TTITLE6=Tampa Red's Hokum Jug Band With Frankie "Half Pint" Jaxon - I Wonder Where My Easy Rider's Gone
TTITLE7=Bob Howe and Frankie Griggs - The Hottest Stuff In Town
TTITLE8=Ethel Waters and James P. Johnson - My Handy Man
TTITLE9=Blind Willie McTell - Southern Can Mama
TTITLE10=Oscar's Chicago Swingers Featuring Lovin' Sam Theard - I Wonder Who's Boogien' My Woogie Now
TTITLE11=Johnnie Temple - Grinding Mill
TTITLE12=Lonnie Johnson - Uncle Ned, Don't Use Your Head
TTITLE13=Connie McLean's Rhythm Boys - Sissy Man Blues
TTITLE14=Blind Boy Fuller - What's That Smells Like Fish
TTITLE15=Clara Smith - For Sale (Hannah Johnsons Big Jack Ass)
TTITLE16=James "Stump" Johnson - The Duck's Yas Yas Yas
TTITLE17=The Chocolate Dandies - Six Or Seven Times
TTITLE18=Lucille Bogan - Tired As I Can Be
TTITLE19=Sippie Wallace - I'm A Mighty Tight Woman
EXTD=
EXTT0=
EXTT1=
EXTT2=
EXTT3=
EXTT4=
EXTT5=
EXTT6=
EXTT7=
EXTT8=
EXTT9=
EXTT10=
EXTT11=
EXTT12=
EXTT13=
EXTT14=
EXTT15=
EXTT16=
EXTT17=
EXTT18=
EXTT19=
PLAYORDER=
